<svg xmlns="http://www.w3.org/2000/svg" viewBox="0 0 19.071 15.096">
  <defs>
    <style>
      .cls-1 {
        fill: #2699fb;
        fill-rule: evenodd;
      }
    </style>
  </defs>
  <path id="Path_235" data-name="Path 235" class="cls-1" d="M54.7,9.27h1.561a5.429,5.429,0,0,1,3.191.759,2.725,2.725,0,0,1,1.043,2.364,2.324,2.324,0,0,1-.95,2.006,4.606,4.606,0,0,1-2.74.7H51.77V8.758l3.135-3.135H59.75V7.542H54.7V9.276ZM57.269,0,58,.728l-12.93,12.93-.728-.728,3.882-3.882L48.2,8.962H44.882l-.475,1.561H41.42l3.567-9.474h3.2l2.191,5.845L57.276,0ZM54.7,13.054h1.5c.913,0,1.376-.333,1.376-.994,0-.58-.457-.87-1.376-.87H54.7ZM47.573,6.906,46.536,3.5,45.5,6.906Z" transform="translate(-41.42)"/>
</svg>
